<svg width="160" height="35" viewBox="0 0 160 35" fill="none" xmlns="http://www.w3.org/2000/svg">
<path d="M2.58438 28.7527L0.272331 25.5552H1.94249L3.51294 27.8425L5.09585 25.5552H6.75355L4.43526 28.7527L6.87195 32.0921H5.21426L3.51294 29.6452L1.81785 32.0921H0.160156L2.58438 28.7527Z" fill="white"/>
<path d="M7.03398 25.5552H8.62936L10.0315 29.261C10.2434 29.789 10.3847 30.2855 10.4553 30.7504H10.5052C10.5426 30.5337 10.6111 30.2717 10.7108 29.9643C10.8105 29.6531 11.3382 28.1833 12.2937 25.5552H13.8766L10.9289 32.9609C10.393 34.3203 9.49975 35 8.24921 35C7.92515 35 7.6094 34.9665 7.30196 34.8995V33.8002C7.52215 33.8475 7.77351 33.8711 8.05602 33.8711C8.76231 33.8711 9.25878 33.483 9.54545 32.7068L9.80096 32.0921L7.03398 25.5552Z" fill="white"/>
<path d="M21.5357 34.403H20.1709V32.0921H15.4471V34.403H14.0948V31.0164H14.6556C15.1459 30.3505 15.5343 29.5467 15.821 28.6049C16.1118 27.6593 16.2843 26.6427 16.3383 25.5552H20.5261V31.0164H21.5357V34.403ZM19.0865 31.0164V26.6191H17.6033C17.5244 27.4307 17.3582 28.2306 17.1048 29.0187C16.8555 29.8067 16.5502 30.4726 16.1887 31.0164H19.0865Z" fill="white"/>
<path d="M28.9268 28.8118C28.9268 29.8796 28.638 30.713 28.0605 31.3119C27.483 31.9108 26.6791 32.2103 25.6488 32.2103C25.0048 32.2103 24.4356 32.0724 23.9412 31.7966C23.4468 31.5207 23.0667 31.1247 22.8008 30.6086C22.5349 30.0924 22.4019 29.4935 22.4019 28.8118C22.4019 27.7519 22.6886 26.9244 23.2619 26.3294C23.8353 25.7345 24.6434 25.437 25.6862 25.437C26.6833 25.437 27.4727 25.7423 28.0543 26.3531C28.636 26.9599 28.9268 27.7795 28.9268 28.8118ZM23.9101 28.8118C23.9101 30.3209 24.4979 31.0755 25.6737 31.0755C26.837 31.0755 27.4186 30.3209 27.4186 28.8118C27.4186 27.3184 26.8328 26.5718 25.6612 26.5718C25.0464 26.5718 24.5997 26.7648 24.3214 27.151C24.0472 27.5371 23.9101 28.0907 23.9101 28.8118Z" fill="white"/>
<path d="M34.012 28.7291V25.5552H35.3768V28.7291L38.0316 25.5552H39.5772L36.8663 28.7172L39.8202 32.0921H38.2061L35.3768 28.7763V32.0921H34.012V28.7763L31.189 32.0921H29.5811L32.5288 28.7172L29.8242 25.5552H31.3697L34.012 28.7291Z" fill="white"/>
<path d="M43.8959 32.2103C42.824 32.2103 41.9848 31.9148 41.3782 31.3237C40.7758 30.7287 40.4746 29.9111 40.4746 28.8709C40.4746 27.8031 40.755 26.9638 41.3159 26.3531C41.8767 25.7423 42.6474 25.437 43.6279 25.437C44.5378 25.437 45.2565 25.699 45.7842 26.2231C46.3118 26.7471 46.5756 27.4682 46.5756 28.3863V29.1369H41.9827C42.0035 29.7713 42.1842 30.2599 42.5249 30.6027C42.8655 30.9415 43.3454 31.111 43.9644 31.111C44.3716 31.111 44.7497 31.0755 45.0987 31.0046C45.4518 30.9297 45.8299 30.8076 46.2329 30.6381V31.767C45.8756 31.9286 45.5141 32.0428 45.1485 32.1098C44.7829 32.1768 44.3654 32.2103 43.8959 32.2103ZM43.6279 26.489C43.1626 26.489 42.7887 26.6289 42.5062 26.9087C42.2278 27.1884 42.0616 27.5962 42.0076 28.1321H45.136C45.1277 27.5923 44.9906 27.1845 44.7247 26.9087C44.4588 26.6289 44.0932 26.489 43.6279 26.489Z" fill="white"/>
<path d="M51.019 32.2103C49.9762 32.2103 49.1826 31.9226 48.6384 31.3474C48.0983 30.7682 47.8282 29.9387 47.8282 28.8591C47.8282 27.7598 48.1108 26.9146 48.6758 26.3235C49.245 25.7325 50.0655 25.437 51.1374 25.437C51.8645 25.437 52.5188 25.565 53.1005 25.8211L52.658 26.9382C52.039 26.7097 51.5279 26.5954 51.1249 26.5954C49.9326 26.5954 49.3364 27.346 49.3364 28.8473C49.3364 29.5802 49.4839 30.1318 49.7788 30.5022C50.078 30.8686 50.5142 31.0519 51.0875 31.0519C51.7398 31.0519 52.3568 30.8982 52.9384 30.5908V31.8025C52.6767 31.9483 52.3963 32.0527 52.0971 32.1157C51.8021 32.1788 51.4428 32.2103 51.019 32.2103Z" fill="white"/>
<path d="M59.7375 25.5552V26.6427H57.494V32.0921H56.0232V26.6427H53.7797V25.5552H59.7375Z" fill="white"/>
<path d="M67.0475 27.2278C67.0475 28.0001 66.5718 28.467 65.6204 28.6286V28.6759C66.1522 28.735 66.5594 28.8946 66.8419 29.1546C67.1244 29.4147 67.2657 29.7516 67.2657 30.1653C67.2657 30.7839 67.0164 31.2607 66.5178 31.5956C66.0234 31.9266 65.3026 32.0921 64.3553 32.0921H61.0649V25.5552H64.3429C66.146 25.5552 67.0475 26.1127 67.0475 27.2278ZM65.7638 30.0825C65.7638 29.7673 65.635 29.5447 65.3774 29.4147C65.1198 29.2807 64.7334 29.2137 64.2182 29.2137H62.5294V31.0637H64.2556C65.261 31.0637 65.7638 30.7366 65.7638 30.0825ZM65.583 27.346C65.583 27.086 65.475 26.8988 65.259 26.7845C65.0471 26.6663 64.7293 26.6072 64.3055 26.6072H62.5294V28.1794H64.0874C64.5776 28.1794 64.9494 28.1203 65.2029 28.0021C65.4563 27.8799 65.583 27.6613 65.583 27.346Z" fill="white"/>
<path d="M71.79 32.2103C70.7181 32.2103 69.8789 31.9148 69.2723 31.3237C68.6699 30.7287 68.3687 29.9111 68.3687 28.8709C68.3687 27.8031 68.6491 26.9638 69.21 26.3531C69.7709 25.7423 70.5416 25.437 71.5221 25.437C72.4319 25.437 73.1507 25.699 73.6783 26.2231C74.206 26.7471 74.4698 27.4682 74.4698 28.3863V29.1369H69.8768C69.8976 29.7713 70.0783 30.2599 70.419 30.6027C70.7597 30.9415 71.2395 31.111 71.8586 31.111C72.2657 31.111 72.6438 31.0755 72.9928 31.0046C73.3459 30.9297 73.724 30.8076 74.127 30.6381V31.767C73.7697 31.9286 73.4083 32.0428 73.0427 32.1098C72.677 32.1768 72.2595 32.2103 71.79 32.2103ZM71.5221 26.489C71.0568 26.489 70.6828 26.6289 70.4003 26.9087C70.122 27.1884 69.9558 27.5962 69.9018 28.1321H73.0302C73.0219 27.5923 72.8848 27.1845 72.6189 26.9087C72.353 26.6289 71.9874 26.489 71.5221 26.489Z" fill="white"/>
<path d="M77.5982 25.5552V28.1794H80.845V25.5552H82.3095V32.0921H80.845V29.2728H77.5982V32.0921H76.1337V25.5552H77.5982Z" fill="white"/>
<path d="M85.8742 25.5552V28.1794H89.1211V25.5552H90.5856V32.0921H89.1211V29.2728H85.8742V32.0921H84.4097V25.5552H85.8742Z" fill="white"/>
<path d="M96.9982 32.0921L96.7053 31.1819H96.6555C96.3231 31.5798 95.9886 31.8517 95.6521 31.9975C95.3156 32.1394 94.8835 32.2103 94.3559 32.2103C93.6787 32.2103 93.149 32.0369 92.7667 31.6902C92.3887 31.3434 92.1996 30.8529 92.1996 30.2185C92.1996 29.5447 92.4634 29.0364 92.9911 28.6936C93.5187 28.3508 94.3226 28.1636 95.4028 28.1321L96.5931 28.0967V27.7479C96.5931 27.3303 96.4893 27.019 96.2815 26.8141C96.078 26.6053 95.7601 26.5008 95.3281 26.5008C94.9749 26.5008 94.6363 26.5501 94.3123 26.6486C93.9882 26.7471 93.6766 26.8633 93.3775 26.9973L92.9038 26.0044C93.2778 25.8192 93.687 25.6793 94.1315 25.5847C94.5761 25.4862 94.9957 25.437 95.3904 25.437C96.267 25.437 96.9276 25.6182 97.3721 25.9807C97.8208 26.3432 98.0452 26.9126 98.0452 27.6888V32.0921H96.9982ZM94.817 31.1464C95.3488 31.1464 95.7747 31.0065 96.0946 30.7268C96.4187 30.4431 96.5807 30.0471 96.5807 29.5388V28.9714L95.6957 29.0069C95.0061 29.0305 94.5034 29.1408 94.1876 29.3378C93.876 29.5309 93.7202 29.8284 93.7202 30.2303C93.7202 30.5219 93.8116 30.7485 93.9944 30.91C94.1772 31.0676 94.4514 31.1464 94.817 31.1464Z" fill="white"/>
<path d="M100.793 32.0921H99.1545L101.074 29.4147C100.609 29.2886 100.243 29.064 99.9771 28.7409C99.7112 28.4138 99.5782 28.01 99.5782 27.5293C99.5782 26.9106 99.8109 26.428 100.276 26.0812C100.742 25.7305 101.377 25.5552 102.183 25.5552H105.324V32.0921H103.853V29.5743H102.464L100.793 32.0921ZM101.005 27.5411C101.005 27.876 101.138 28.1282 101.404 28.2976C101.674 28.4631 102.036 28.5458 102.489 28.5458H103.853V26.6072H102.258C101.859 26.6072 101.55 26.688 101.329 26.8496C101.113 27.0111 101.005 27.2416 101.005 27.5411Z" fill="white"/>
<path d="M115.189 25.5552V26.6427H112.198V32.0921H110.733V25.5552H115.189Z" fill="white"/>
<path d="M120.829 32.0921L120.536 31.1819H120.486C120.154 31.5798 119.82 31.8517 119.483 31.9975C119.147 32.1394 118.714 32.2103 118.187 32.2103C117.51 32.2103 116.98 32.0369 116.598 31.6902C116.22 31.3434 116.031 30.8529 116.031 30.2185C116.031 29.5447 116.294 29.0364 116.822 28.6936C117.35 28.3508 118.154 28.1636 119.234 28.1321L120.424 28.0967V27.7479C120.424 27.3303 120.32 27.019 120.112 26.8141C119.909 26.6053 119.591 26.5008 119.159 26.5008C118.806 26.5008 118.467 26.5501 118.143 26.6486C117.819 26.7471 117.508 26.8633 117.208 26.9973L116.735 26.0044C117.109 25.8192 117.518 25.6793 117.962 25.5847C118.407 25.4862 118.827 25.437 119.221 25.437C120.098 25.437 120.759 25.6182 121.203 25.9807C121.652 26.3432 121.876 26.9126 121.876 27.6888V32.0921H120.829ZM118.648 31.1464C119.18 31.1464 119.606 31.0065 119.926 30.7268C120.25 30.4431 120.412 30.0471 120.412 29.5388V28.9714L119.527 29.0069C118.837 29.0305 118.334 29.1408 118.019 29.3378C117.707 29.5309 117.551 29.8284 117.551 30.2303C117.551 30.5219 117.643 30.7485 117.825 30.91C118.008 31.0676 118.282 31.1464 118.648 31.1464Z" fill="white"/>
<path d="M129.585 32.0921H128.108V26.6427H126.207C126.091 28.0454 125.933 29.1408 125.734 29.9289C125.538 30.7169 125.281 31.2922 124.961 31.6547C124.645 32.0172 124.234 32.1985 123.727 32.1985C123.407 32.1985 123.139 32.1551 122.923 32.0684V30.9809C123.077 31.0361 123.231 31.0637 123.384 31.0637C123.808 31.0637 124.14 30.6125 124.381 29.7102C124.626 28.8039 124.818 27.4189 124.955 25.5552H129.585V32.0921Z" fill="white"/>
<path d="M134.695 32.2103C133.623 32.2103 132.784 31.9148 132.177 31.3237C131.575 30.7287 131.274 29.9111 131.274 28.8709C131.274 27.8031 131.554 26.9638 132.115 26.3531C132.676 25.7423 133.447 25.437 134.427 25.437C135.337 25.437 136.056 25.699 136.583 26.2231C137.111 26.7471 137.375 27.4682 137.375 28.3863V29.1369H132.782C132.803 29.7713 132.984 30.2599 133.324 30.6027C133.665 30.9415 134.145 31.111 134.764 31.111C135.171 31.111 135.549 31.0755 135.898 31.0046C136.251 30.9297 136.629 30.8076 137.032 30.6381V31.767C136.675 31.9286 136.313 32.0428 135.948 32.1098C135.582 32.1768 135.165 32.2103 134.695 32.2103ZM134.427 26.489C133.962 26.489 133.588 26.6289 133.305 26.9087C133.027 27.1884 132.861 27.5962 132.807 28.1321H135.935C135.927 27.5923 135.79 27.1845 135.524 26.9087C135.258 26.6289 134.893 26.489 134.427 26.489Z" fill="white"/>
<path d="M142.535 32.2103C141.663 32.2103 140.985 31.9128 140.503 31.3178H140.416C140.474 31.8695 140.503 32.2044 140.503 32.3226V35H139.039V25.5552H140.223C140.256 25.6773 140.325 25.9689 140.429 26.4299H140.503C140.96 25.768 141.646 25.437 142.56 25.437C143.42 25.437 144.089 25.7325 144.567 26.3235C145.049 26.9146 145.29 27.744 145.29 28.8118C145.29 29.8796 145.044 30.713 144.554 31.3119C144.068 31.9108 143.395 32.2103 142.535 32.2103ZM142.18 26.5718C141.598 26.5718 141.172 26.7333 140.902 27.0564C140.636 27.3795 140.503 27.8957 140.503 28.6049V28.8118C140.503 29.6077 140.636 30.185 140.902 30.5436C141.168 30.8982 141.602 31.0755 142.205 31.0755C142.712 31.0755 143.102 30.8785 143.376 30.4845C143.65 30.0904 143.788 29.5289 143.788 28.8C143.788 28.0671 143.65 27.5135 143.376 27.1392C143.106 26.7609 142.707 26.5718 142.18 26.5718Z" fill="white"/>
<path d="M150.001 32.2103C148.929 32.2103 148.09 31.9148 147.483 31.3237C146.881 30.7287 146.58 29.9111 146.58 28.8709C146.58 27.8031 146.86 26.9638 147.421 26.3531C147.982 25.7423 148.752 25.437 149.733 25.437C150.643 25.437 151.361 25.699 151.889 26.2231C152.417 26.7471 152.681 27.4682 152.681 28.3863V29.1369H148.088C148.108 29.7713 148.289 30.2599 148.63 30.6027C148.971 30.9415 149.45 31.111 150.069 31.111C150.477 31.111 150.855 31.0755 151.204 31.0046C151.557 30.9297 151.935 30.8076 152.338 30.6381V31.767C151.981 31.9286 151.619 32.0428 151.253 32.1098C150.888 32.1768 150.47 32.2103 150.001 32.2103ZM149.733 26.489C149.268 26.489 148.894 26.6289 148.611 26.9087C148.333 27.1884 148.167 27.5962 148.113 28.1321H151.241C151.233 27.5923 151.096 27.1845 150.83 26.9087C150.564 26.6289 150.198 26.489 149.733 26.489Z" fill="white"/>
<path d="M155.049 32.0921H153.41L155.329 29.4147C154.864 29.2886 154.498 29.064 154.232 28.7409C153.966 28.4138 153.833 28.01 153.833 27.5293C153.833 26.9106 154.066 26.428 154.531 26.0812C154.997 25.7305 155.632 25.5552 156.438 25.5552H159.579V32.0921H158.109V29.5743H156.719L155.049 32.0921ZM155.261 27.5411C155.261 27.876 155.394 28.1282 155.659 28.2976C155.929 28.4631 156.291 28.5458 156.744 28.5458H158.109V26.6072H156.513C156.114 26.6072 155.805 26.688 155.585 26.8496C155.369 27.0111 155.261 27.2416 155.261 27.5411Z" fill="white"/>
<path d="M0 18.9452H10.7849C15.0382 18.9452 17.2154 17.1183 17.2154 13.6405V13.5864C17.2154 11.0017 15.8312 9.43199 13.1639 8.98543V8.74185C15.3987 8.33588 16.5666 6.95559 16.5666 4.70923V4.64157C16.5666 1.58328 14.5336 0 10.5542 0H0V18.9452ZM4.25339 7.75399V2.67939H9.28536C11.3183 2.67939 12.3276 3.51839 12.3276 5.16933V5.22346C12.3276 6.90146 11.3183 7.75399 9.28536 7.75399H4.25339ZM4.25339 16.2523V10.2169H9.41512C11.65 10.2169 12.7602 11.2183 12.7602 13.1804V13.2346C12.7602 15.2373 11.65 16.2523 9.41512 16.2523H4.25339Z" fill="white"/>
<path d="M21.2219 0V18.9452H25.4177V0H21.2219Z" fill="white"/>
<path d="M34.1966 19.297C37.5849 19.297 40.0505 17.8761 40.9588 15.4674L41.2472 15.535C40.6993 18.1603 41.276 19.297 44.5922 19.297C45.0103 19.297 45.4285 19.2564 45.7745 19.2023L46.2647 16.8612L45.5438 16.8477C44.7508 16.8341 44.5201 16.6582 44.5201 15.6974V9.18841C44.5201 5.96773 42.242 4.42505 37.3831 4.42505C32.2213 4.42505 29.6116 6.3331 29.8279 9.63498L33.966 9.95975C33.7929 7.78106 34.9752 6.7932 37.2966 6.7932C39.3728 6.7932 40.3532 7.51041 40.3532 9.14782V9.94622L36.2585 10.6499C32.1637 11.3671 29.453 12.585 29.453 15.5621V15.6027C29.453 17.9573 31.1544 19.297 34.1966 19.297ZM35.8692 16.6718C34.4562 16.6718 33.692 16.1981 33.692 15.2238V15.1967C33.692 13.8029 35.0329 13.2346 37.6859 12.7474L40.3532 12.2602V12.9233C40.3532 15.102 38.2626 16.6718 35.8692 16.6718Z" fill="white"/>
<path d="M49.7955 18.9452H53.9912V12.3414C53.9912 9.14781 55.5916 7.1721 58.2446 7.1721C60.2199 7.1721 61.2003 8.13289 61.2003 9.97328V18.9452H65.396V9.02602C65.396 6.04892 63.5361 4.47918 60.0757 4.47918C56.9325 4.47918 54.7842 5.77828 53.5154 8.48473L53.227 8.36294C53.8037 6.7526 54.0056 5.79181 54.0056 4.73629H49.7955V18.9452Z" fill="white"/>
<path d="M77.8805 19.2835C82.826 19.2835 85.5943 17.416 86.0124 13.8029L81.7734 13.3564C81.6004 15.6298 80.2739 16.78 77.8949 16.78C75.2276 16.78 73.8434 15.2103 73.8434 12.1114V11.4483C73.8434 8.41707 75.242 6.88793 77.8517 6.88793C80.2595 6.88793 81.5139 8.14643 81.7014 10.6634L85.8826 10.2169C85.551 6.38723 82.8837 4.39799 77.8661 4.39799C72.416 4.39799 69.5468 6.90146 69.5468 11.6919V11.8678C69.5468 16.7394 72.3872 19.2835 77.8805 19.2835Z" fill="white"/>
<path d="M90.192 18.9452H94.3877V12.3414C94.3877 9.14781 95.9737 7.18564 98.6411 7.18564C100.616 7.18564 101.597 8.13289 101.597 9.97328V18.9452H105.793V9.02602C105.793 6.04892 103.918 4.47918 100.472 4.47918C97.3002 4.47918 95.1663 5.77828 93.9119 8.4712L93.6091 8.36294C94.1714 6.84733 94.3733 5.72415 94.3877 4.38446V0H90.192V18.9452Z" fill="white"/>
<path d="M114.499 19.297C117.888 19.297 120.353 17.8761 121.262 15.4674L121.55 15.535C121.002 18.1603 121.579 19.297 124.895 19.297C125.313 19.297 125.731 19.2564 126.077 19.2023L126.568 16.8612L125.847 16.8477C125.054 16.8341 124.823 16.6582 124.823 15.6974V9.18841C124.823 5.96773 122.545 4.42505 117.686 4.42505C112.524 4.42505 109.914 6.3331 110.131 9.63498L114.269 9.95975C114.096 7.78106 115.278 6.7932 117.599 6.7932C119.676 6.7932 120.656 7.51041 120.656 9.14782V9.94622L116.561 10.6499C112.466 11.3671 109.756 12.585 109.756 15.5621V15.6027C109.756 17.9573 111.457 19.297 114.499 19.297ZM116.172 16.6718C114.759 16.6718 113.995 16.1981 113.995 15.2238V15.1967C113.995 13.8029 115.336 13.2346 117.989 12.7474L120.656 12.2602V12.9233C120.656 15.102 118.565 16.6718 116.172 16.6718Z" fill="white"/>
<path d="M130.098 18.9452H134.294V13.0045C134.294 9.29667 135.52 7.92991 138.72 7.71339L140.782 7.56454L140.292 4.28973C136.904 4.53331 135.332 5.5347 133.775 8.48473L133.501 8.36294C134.179 6.46843 134.337 5.71062 134.308 4.73629H130.098V18.9452Z" fill="white"/>
<path d="M150.051 19.2023C153.166 19.2023 155.199 17.8491 156.222 15.3997L156.525 15.4945C156.035 16.983 155.775 18.1603 155.761 18.9452H160V0H155.804V3.8567C155.804 5.34525 156.021 6.54962 156.54 8.18702L156.251 8.29528C155.228 5.85947 153.18 4.45212 150.051 4.45212C145.726 4.45212 143.448 6.92852 143.448 11.6648V12.0031C143.448 16.7259 145.726 19.2023 150.051 19.2023ZM151.637 16.7665C149.042 16.7665 147.687 15.2103 147.687 12.1384V11.516C147.687 8.4306 149.042 6.86086 151.637 6.86086C154.348 6.86086 155.804 8.5118 155.804 11.5836V12.0708C155.804 15.1291 154.348 16.7665 151.637 16.7665Z" fill="white"/>
</svg>
